<?xml version="1.0" encoding="utf-8"?>
<!-- Generator: Adobe Illustrator 21.1.0, SVG Export Plug-In . SVG Version: 6.00 Build 0)  -->
<svg version="1.1" id="Layer_1" xmlns="http://www.w3.org/2000/svg" xmlns:xlink="http://www.w3.org/1999/xlink" x="0px" y="0px"
	 viewBox="0 0 250 63.3" style="enable-background:new 0 0 250 63.3;" xml:space="preserve">
<style type="text/css">
	.st0{fill:#5C2482;}
</style>
<g>
	<path class="st0" d="M38.4,61.6c-0.7,0-1.4-0.1-2.2-0.2c-5.7-1-9.8-5.8-9.8-11.3V12.7c0-0.4-0.3-0.9-0.9-0.9
		c-0.7,0-0.9,0.6-0.9,0.9c-1.1,3.1-2.6,7.2-4.1,11.1c-1.3,3.4-2.6,7-3.7,10c-1.4,3.9-4.3,7.1-8.3,9.2c-2.8,1.4-5.1,1.8-5.6,1.9
		L1.3,34.4l-0.1,0c0,0,4.4-0.8,5.6-4.2c1.1-3,2.4-6.6,3.7-10.1c1.5-3.9,3-7.9,4-11c1.9-5.2,7.4-8.2,13.1-7.3c5.6,1,9.3,5.4,9.3,11
		v37.4c0,0.4,0.4,0.9,0.8,0.9c0.6,0,0.8-0.4,0.9-0.6c1.3-3.3,4-11.1,6.8-18.8c2.7-7.4,5.2-14.5,6.3-17.5c2.1-5.5,7.5-8.7,13.2-7.7
		c5.4,1,9.2,5.5,9.2,10.9c0,3.6,0,9.2,0,14.5c0,5.2,0,10.8,0,13.9c0,0.6,0.5,0.9,0.9,0.9c0.6,0,0.8-0.4,0.9-0.7
		c0.9-2.5,2.3-6.1,3.7-9.9c2.5-6.6,5.2-14,6.7-18.2c2-5.5,7.1-8.6,12.7-7.6c5.5,1,9.6,5.4,9.6,10.5v9.3c0,2.4,1,4.7,2.7,6.2
		c0.7,0.6,1.7,1.2,3,1.1l1.6,10.5c-4.1,0.6-8.1-0.7-11.5-3.5c-4-3.4-6.4-8.7-6.4-14.2V22c0-0.5-0.4-0.9-0.9-0.9
		c-0.2,0-0.6,0.1-0.8,0.5C94.8,25.9,92,33.4,89.5,40c-1.4,3.8-2.7,7.3-3.7,9.8c-1,2.7-2.8,4.8-5.3,6.1c-2.2,1.1-4.7,1.5-7.2,1
		c-2.6-0.5-5-1.8-6.8-3.7c-2-2.1-3.1-5-3.1-7.9c0-3.2,0-8.1,0-13.4c0-5.3,0-10.2,0-13.8c0-0.5-0.4-0.9-0.8-0.9
		c-0.5,0-0.8,0.2-0.9,0.5c-1.1,3-3.8,10.5-6.3,17.6C52.8,43,49.9,51,48.7,54.4C47,58.9,43,61.6,38.4,61.6z"/>
	<g>
		<g>
			<path class="st0" d="M159.7,25.6c0.9,1,1.4,2.3,1.4,4.1v7.4h-3.2v-7.1c0-1-0.2-1.7-0.8-2.3c-0.5-0.5-1.2-0.8-2.1-0.8
				c-0.9,0-1.6,0.3-2.2,0.9c-0.5,0.6-0.8,1.4-0.8,2.5v6.8h-3.2v-7.1c0-1-0.3-1.7-0.8-2.3c-0.5-0.5-1.2-0.8-2.1-0.8
				c-0.9,0-1.6,0.3-2.2,0.9c-0.5,0.6-0.8,1.4-0.8,2.5v6.8h-3.3V24.3h3.3v2.4c0.3-0.8,0.9-1.5,1.6-1.9c0.7-0.5,1.6-0.7,2.6-0.7
				c1,0,1.9,0.2,2.7,0.7c0.8,0.5,1.3,1.2,1.7,2.1c0.4-0.9,1-1.6,1.8-2.1c0.8-0.5,1.7-0.8,2.7-0.8C157.5,24.1,158.8,24.6,159.7,25.6z
				"/>
			<path class="st0" d="M181.3,24.9c1,0.5,1.8,1.3,2.3,2.3c0.6,1,0.9,2.2,0.9,3.5c0,1.3-0.3,2.5-0.9,3.5c-0.6,1-1.4,1.7-2.3,2.3
				c-1,0.5-2.1,0.8-3.4,0.8s-2.4-0.3-3.4-0.8c-1-0.5-1.8-1.3-2.3-2.3c-0.6-1-0.9-2.2-0.9-3.5c0-1.3,0.3-2.5,0.9-3.5
				c0.6-1,1.4-1.8,2.3-2.3c1-0.5,2.1-0.8,3.4-0.8S180.3,24.4,181.3,24.9z M175.6,27.9c-0.6,0.6-0.9,1.6-0.9,2.8
				c0,1.2,0.3,2.1,0.9,2.8c0.6,0.6,1.4,1,2.3,1s1.7-0.3,2.3-1c0.6-0.6,0.9-1.6,0.9-2.8c0-1.2-0.3-2.1-0.9-2.8c-0.6-0.6-1.4-1-2.3-1
				S176.2,27.3,175.6,27.9z"/>
			<path class="st0" d="M200,24.8c0.8-0.5,1.7-0.7,2.6-0.7v3.5h-0.9c-2.4,0-3.6,1.1-3.6,3.3v6.2h-3.3V24.3h3.3v2.5
				C198.6,26,199.3,25.3,200,24.8z"/>
			<path class="st0" d="M223.1,24.9c0.9,0.5,1.5,1.3,2,2.3s0.7,2.2,0.7,3.5c0,1.3-0.2,2.5-0.7,3.5c-0.5,1-1.2,1.8-2,2.3
				c-0.9,0.5-1.8,0.8-2.9,0.8c-1.1,0-2-0.3-2.8-0.8c-0.8-0.5-1.3-1.2-1.6-2.1v8.8h-3.3V24.3h3.3V27c0.3-0.9,0.9-1.5,1.6-2.1
				c0.8-0.5,1.7-0.8,2.8-0.8C221.3,24.2,222.3,24.4,223.1,24.9z M216.8,28c-0.6,0.7-1,1.6-1,2.7c0,1.1,0.3,2,1,2.7
				c0.6,0.7,1.5,1,2.4,1c1,0,1.8-0.3,2.5-1c0.6-0.7,0.9-1.6,0.9-2.7c0-1.2-0.3-2.1-0.9-2.7c-0.6-0.7-1.4-1-2.5-1
				C218.2,27,217.4,27.3,216.8,28z"/>
			<path class="st0" d="M247.5,25.6c0.9,1,1.3,2.3,1.3,4.1v7.4h-3.2v-7.1c0-1-0.3-1.8-0.8-2.4c-0.5-0.6-1.2-0.8-2.2-0.8
				c-0.9,0-1.7,0.3-2.2,0.9c-0.6,0.6-0.8,1.5-0.8,2.6v6.8h-3.3V20h3.3v6.9c0.3-0.9,0.9-1.5,1.7-2c0.8-0.5,1.7-0.7,2.7-0.7
				C245.4,24.1,246.6,24.6,247.5,25.6z"/>
		</g>
	</g>
</g>
</svg>
