<?xml version="1.0" encoding="utf-8"?>
<!-- Generator: Adobe Illustrator 21.1.0, SVG Export Plug-In . SVG Version: 6.00 Build 0)  -->
<svg version="1.1" id="Layer_1" xmlns="http://www.w3.org/2000/svg" xmlns:xlink="http://www.w3.org/1999/xlink" x="0px" y="0px"
	 viewBox="0 0 112 63.3" style="enable-background:new 0 0 112 63.3;" xml:space="preserve">
<style type="text/css">
	.st0{fill:#5C2482;}
</style>
<g>
	<g>
		<g>
			<path class="st0" d="M21.7,25.6c0.9,1,1.4,2.3,1.4,4.1v7.4h-3.2v-7.1c0-1-0.2-1.7-0.8-2.3C18.5,27.2,17.8,27,17,27
				c-0.9,0-1.6,0.3-2.2,0.9S14,29.2,14,30.3v6.8h-3.2v-7.1c0-1-0.3-1.7-0.8-2.3C9.5,27.2,8.8,27,7.9,27c-0.9,0-1.6,0.3-2.2,0.9
				s-0.8,1.4-0.8,2.5v6.8H1.7V24.3h3.3v2.4c0.3-0.8,0.9-1.5,1.6-1.9c0.7-0.5,1.6-0.7,2.6-0.7c1,0,1.9,0.2,2.7,0.7
				c0.8,0.5,1.3,1.2,1.7,2.1c0.4-0.9,1-1.6,1.8-2.1c0.8-0.5,1.7-0.8,2.7-0.8C19.5,24.1,20.8,24.6,21.7,25.6z"/>
			<path class="st0" d="M43.3,24.9c1,0.5,1.8,1.3,2.3,2.3c0.6,1,0.9,2.2,0.9,3.5c0,1.3-0.3,2.5-0.9,3.5c-0.6,1-1.4,1.7-2.3,2.3
				c-1,0.5-2.1,0.8-3.4,0.8s-2.4-0.3-3.4-0.8c-1-0.5-1.8-1.3-2.3-2.3c-0.6-1-0.9-2.2-0.9-3.5c0-1.3,0.3-2.5,0.9-3.5
				c0.6-1,1.4-1.8,2.3-2.3c1-0.5,2.1-0.8,3.4-0.8S42.3,24.4,43.3,24.9z M37.6,27.9c-0.6,0.6-0.9,1.6-0.9,2.8c0,1.2,0.3,2.1,0.9,2.8
				c0.6,0.6,1.4,1,2.3,1s1.7-0.3,2.3-1c0.6-0.6,0.9-1.6,0.9-2.8c0-1.2-0.3-2.1-0.9-2.8c-0.6-0.6-1.4-1-2.3-1S38.2,27.3,37.6,27.9z"
				/>
			<path class="st0" d="M62,24.8c0.8-0.5,1.7-0.7,2.6-0.7v3.5h-0.9c-2.4,0-3.6,1.1-3.6,3.3v6.2h-3.3V24.3h3.3v2.5
				C60.6,26,61.3,25.3,62,24.8z"/>
			<path class="st0" d="M85.1,24.9c0.9,0.5,1.5,1.3,2,2.3c0.5,1,0.7,2.2,0.7,3.5c0,1.3-0.2,2.5-0.7,3.5c-0.5,1-1.2,1.8-2,2.3
				c-0.9,0.5-1.8,0.8-2.9,0.8c-1.1,0-2-0.3-2.8-0.8s-1.3-1.2-1.6-2.1v8.8h-3.3V24.3h3.3V27c0.3-0.9,0.9-1.5,1.6-2.1s1.7-0.8,2.8-0.8
				C83.3,24.2,84.3,24.4,85.1,24.9z M78.8,28c-0.6,0.7-1,1.6-1,2.7c0,1.1,0.3,2,1,2.7c0.6,0.7,1.5,1,2.4,1c1,0,1.8-0.3,2.5-1
				c0.6-0.7,0.9-1.6,0.9-2.7c0-1.2-0.3-2.1-0.9-2.7c-0.6-0.7-1.4-1-2.5-1C80.2,27,79.4,27.3,78.8,28z"/>
			<path class="st0" d="M109.5,25.6c0.9,1,1.3,2.3,1.3,4.1v7.4h-3.2v-7.1c0-1-0.3-1.8-0.8-2.4c-0.5-0.6-1.2-0.8-2.2-0.8
				c-0.9,0-1.7,0.3-2.2,0.9c-0.6,0.6-0.8,1.5-0.8,2.6v6.8h-3.3V20h3.3v6.9c0.3-0.9,0.9-1.5,1.7-2c0.8-0.5,1.7-0.7,2.7-0.7
				C107.4,24.1,108.6,24.6,109.5,25.6z"/>
		</g>
	</g>
</g>
</svg>
