<?xml version="1.0" standalone="no"?>
<!DOCTYPE svg PUBLIC "-//W3C//DTD SVG 20010904//EN"
 "http://www.w3.org/TR/2001/REC-SVG-20010904/DTD/svg10.dtd">
<svg version="1.0" xmlns="http://www.w3.org/2000/svg"
 width="260.000000pt" height="260.000000pt" viewBox="0 0 260.000000 260.000000"
 preserveAspectRatio="xMidYMid meet">
<metadata>
Created by potrace 1.11, written by Peter Selinger 2001-2013
</metadata>
<g transform="translate(0.000000,260.000000) scale(0.100000,-0.100000)"
fill="#000000" stroke="none">
<path d="M471 1969 c-113 -34 -183 -140 -248 -378 -18 -69 -47 -153 -62 -186
-29 -62 -83 -125 -107 -125 -7 0 -15 -4 -18 -9 -5 -8 54 -206 68 -230 12 -19
126 47 182 104 68 71 123 186 173 362 51 178 69 224 81 203 17 -31 23 -142 25
-480 2 -357 2 -366 35 -453 62 -166 233 -197 360 -67 82 85 122 173 209 470
62 209 85 275 123 357 30 65 45 83 53 61 2 -7 6 -139 8 -293 3 -257 5 -285 25
-339 27 -73 62 -119 115 -153 56 -35 160 -38 227 -7 122 58 178 156 271 479
42 145 76 235 89 235 4 0 12 -39 19 -87 26 -192 58 -279 124 -345 67 -66 163
-91 270 -68 47 9 57 15 53 28 -39 124 -66 215 -66 219 0 3 -17 2 -38 -2 -26
-4 -42 -2 -49 7 -17 21 -33 87 -48 203 -31 230 -112 329 -262 320 -107 -7
-188 -74 -251 -208 -17 -35 -51 -135 -76 -222 -26 -88 -57 -186 -69 -218 -23
-61 -61 -116 -72 -106 -12 12 -17 98 -19 354 -3 286 -9 325 -65 402 -60 83
-187 111 -281 63 -122 -62 -202 -211 -311 -580 -60 -205 -112 -350 -124 -350
-2 0 -4 154 -5 343 0 188 -3 358 -5 377 -11 80 -16 103 -35 157 -25 72 -65
121 -119 148 -46 24 -125 30 -180 14z"/>
</g>
</svg>
