<?xml version="1.0" encoding="utf-8"?>
<!-- Generator: Adobe Illustrator 21.1.0, SVG Export Plug-In . SVG Version: 6.00 Build 0)  -->
<svg version="1.1" width="50px" height="50px" id="Layer_1" xmlns="http://www.w3.org/2000/svg" xmlns:xlink="http://www.w3.org/1999/xlink" x="0px" y="0px"
	 viewBox="0 0 48 48" style="enable-background:new 0 0 48 48;" xml:space="preserve">
<style type="text/css">
	.st0{fill:#C9C9C9;}
</style>
<g>
	<rect y="37.3" class="st0" width="48" height="2.9"/>
	<path class="st0" d="M41.3,7.8H6.8c-2.4,0-4.3,1.9-4.3,4.3v21.6C2.5,36,4.5,38,6.8,38h34.5c2.4,0,4.3-1.9,4.3-4.3V12.1
		C45.7,9.7,43.7,7.8,41.3,7.8z M43.1,33.5c0,0.9-0.7,1.7-1.7,1.7H6.8c-0.9,0-1.7-0.7-1.7-1.7V12.3c0-0.9,0.7-1.7,1.7-1.7h34.6
		c0.9,0,1.7,0.7,1.7,1.7V33.5z"/>
</g>
</svg>
