<?xml version="1.0" encoding="utf-8"?>
<!-- Generator: Adobe Illustrator 21.1.0, SVG Export Plug-In . SVG Version: 6.00 Build 0)  -->
<svg version="1.1" width="50px" height="50px" id="Layer_1" xmlns="http://www.w3.org/2000/svg" xmlns:xlink="http://www.w3.org/1999/xlink" x="0px" y="0px"
	 viewBox="0 0 16 16" style="enable-background:new 0 0 16 16;" xml:space="preserve">
<style type="text/css">
	.st0{fill:#C9C9C9;}
</style>
<g>
	<path class="st0" d="M8,0C3.6,0,0,3.6,0,8s3.6,8,8,8s8-3.6,8-8S12.4,0,8,0z M8,14.4c-3.5,0-6.4-2.9-6.4-6.4S4.5,1.6,8,1.6
		s6.4,2.9,6.4,6.4S11.5,14.4,8,14.4z"/>
	<polygon class="st0" points="8,4.1 11.2,7.2 8.8,7.2 8.8,11.9 7.2,11.9 7.2,7.2 4.8,7.2 8,4.1 	"/>
</g>
</svg>
