<?xml version="1.0" encoding="utf-8"?>

<!-- Generator: Adobe Illustrator 23.0.0, SVG Export Plug-In . SVG Version: 6.00 Build 0)  -->
<svg version="1.1" id="Layer_1" xmlns="http://www.w3.org/2000/svg" xmlns:xlink="http://www.w3.org/1999/xlink" x="0px" y="0px"
	 viewBox="0 0 200 200" style="enable-background:new 0 0 200 200;" xml:space="preserve">
<style type="text/css">
	.st0{fill:#C9C9C9;}
</style>
<path class="st0" d="M190.54,30.12c0-3.68-1.5-7.28-4.13-9.87l-5.39-5.32c-5.4-5.3-14.17-5.28-19.54,0.07l-8.46,8.46l-2.67-2.7
	c-4.18-4.23-9.99-6.66-15.93-6.68c-0.02,0-0.04,0-0.06,0c-6.01,0-11.66,2.34-15.92,6.59L83.89,55.23c-0.99,0.99-1.53,2.3-1.53,3.7
	c0,1.39,0.54,2.71,1.53,3.69c2.04,2.04,5.35,2.04,7.39,0l34.55-34.55c4.4-4.4,11.27-4.72,16.04-0.88L30.88,138.17
	c-5.53,5.54-9.68,12.42-12.01,19.89l-8.04,25.92c-0.57,1.86-0.08,3.87,1.3,5.24c1,1,2.33,1.53,3.69,1.53c0.52,0,1.04-0.08,1.55-0.23
	l25.92-8.04h0c7.47-2.32,14.34-6.47,19.89-12.01L177.88,55.79c0.99-0.99,1.53-2.3,1.53-3.69c0-1.4-0.54-2.71-1.52-3.69l8.53-8.42
	C189.03,37.4,190.54,33.8,190.54,30.12z M46.44,169.93c-2,1.04-4.09,1.9-6.24,2.57l-16.43,5.1l5.1-16.43
	c0.67-2.15,1.53-4.25,2.57-6.24L46.44,169.93z M99.6,119.29l-43.8,43.8c-0.23,0.23-0.47,0.46-0.72,0.69l-17.5-17.5
	c0.23-0.24,0.46-0.48,0.69-0.71l43.8-43.8L99.6,119.29z M114.86,104.02l-7.87,7.87L89.47,94.37l7.87-7.87L114.86,104.02z
	 M166.79,52.09l-44.54,44.53l-17.52-17.52l44.53-44.53L166.79,52.09z M173.68,22.38l5.39,5.31c0.65,0.65,1.02,1.51,1.02,2.43
	c0,0.91-0.37,1.79-1.01,2.42l-8.58,8.47L160.37,30.9l8.5-8.5C170.19,21.08,172.35,21.07,173.68,22.38z"/>
</svg>
