<?xml version="1.0" encoding="utf-8"?>
<!-- Generator: Adobe Illustrator 21.1.0, SVG Export Plug-In . SVG Version: 6.00 Build 0)  -->
<svg version="1.1" width="50px" height="50px" id="Layer_1" xmlns="http://www.w3.org/2000/svg" xmlns:xlink="http://www.w3.org/1999/xlink" x="0px" y="0px"
	 viewBox="0 0 20 20" style="enable-background:new 0 0 20 20;" xml:space="preserve">
<style type="text/css">
	.st0{fill:#C9C9C9;}
</style>
<g>
	<path class="st0" d="M10,0C4.5,0,0,4.5,0,10c0,5.5,4.5,10,10,10s10-4.5,10-10C20,4.5,15.5,0,10,0z M10,18.1c-4.4,0-8-3.6-8-8.1
		s3.6-8,8-8c4.4,0,8,3.6,8,8S14.4,18.1,10,18.1z"/>
	<polygon class="st0" points="9,12.2 14.1,14.1 12.2,9 	"/>
	<polygon class="st0" points="5.9,5.9 7.8,11 11,7.8 	"/>
</g>
</svg>
