<?xml version="1.0" encoding="utf-8"?>
<!-- Generator: Adobe Illustrator 21.1.0, SVG Export Plug-In . SVG Version: 6.00 Build 0)  -->
<svg version="1.1" id="Layer_1" xmlns="http://www.w3.org/2000/svg" xmlns:xlink="http://www.w3.org/1999/xlink" x="0px" y="0px"
	 viewBox="0 0 24.3 20" style="enable-background:new 0 0 24.3 20;" xml:space="preserve">
<style type="text/css">
	.st0{fill:#C9C9C9;}
</style>
<g>
	<path class="st0" d="M24.3,6.4V0h-6.6c-1.5,0-4,0.6-5.5,2.6C10.7,0.6,8.1,0,6.6,0H0v16.5h0V20h24.3L24.3,6.4L24.3,6.4z M17.7,1.7
		h4.8v13h-4.9c-2.1,0-3.6,0.6-4.7,1.4V5C13.7,1.8,17.5,1.7,17.7,1.7z M6.6,1.7c0.2,0,4,0,4.7,3.4l0,11.1c-1-0.8-2.5-1.4-4.5-1.4
		c0,0-0.1,0-0.1,0H1.8V6.3h0V1.7H6.6z M1.8,16.4h4.8c0,0,0.1,0,0.1,0c1.9,0,3.1,1.3,3.8,2H1.8V16.4z M13.8,18.4c0.7-0.7,1.9-2,3.8-2
		c0,0,0.1,0,0.1,0h4.8v2H13.8z"/>
	<rect x="4.5" y="5.8" class="st0" width="4" height="1.6"/>
	<rect x="4.5" y="10" class="st0" width="4" height="1.7"/>
	<rect x="15.7" y="5.8" class="st0" width="4" height="1.6"/>
	<rect x="15.7" y="10" class="st0" width="4" height="1.5"/>
</g>
</svg>
