<?xml version="1.0" encoding="utf-8"?>
<!-- Generator: Adobe Illustrator 21.1.0, SVG Export Plug-In . SVG Version: 6.00 Build 0)  -->
<svg version="1.1" width="50px"  height="50px" id="Capa_1" xmlns="http://www.w3.org/2000/svg" xmlns:xlink="http://www.w3.org/1999/xlink" x="0px" y="0px"
	 viewBox="0 0 426.7 426.7" style="enable-background:new 0 0 426.7 426.7;" xml:space="preserve">
<style type="text/css">
	.st0{fill:#C9C9C9;}
</style>
<g>
	<g>
		<g>
			<path class="st0" d="M138.7,192c17.7,0,32-14.3,32-32s-14.3-32-32-32s-32,14.3-32,32S121,192,138.7,192z"/>
			<path class="st0" d="M288,192c17.7,0,32-14.3,32-32s-14.3-32-32-32s-32,14.3-32,32S270.3,192,288,192z"/>
			<path class="st0" d="M213.3,298.7c-31.5,0-58.7-17.3-73.5-42.7h-35.7c17.1,43.6,59.5,74.7,109.2,74.7s92.2-31,109.2-74.7h-35.7
				C272,281.4,244.8,298.7,213.3,298.7z"/>
			<path class="st0" d="M213.1,0C95.4,0,0,95.6,0,213.3s95.4,213.3,213.1,213.3c118,0,213.5-95.6,213.5-213.3S331.1,0,213.1,0z
				 M213.3,384C119,384,42.7,307.6,42.7,213.3S119,42.7,213.3,42.7S384,119,384,213.3S307.6,384,213.3,384z"/>
		</g>
	</g>
</g>
</svg>
