<?xml version="1.0" encoding="utf-8"?>
<!-- Generator: Adobe Illustrator 21.1.0, SVG Export Plug-In . SVG Version: 6.00 Build 0)  -->
<svg version="1.1" width="50px" height="50px" id="Layer_1" xmlns="http://www.w3.org/2000/svg" xmlns:xlink="http://www.w3.org/1999/xlink" x="0px" y="0px"
	 viewBox="0 0 15.7 20" style="enable-background:new 0 0 15.7 20;" xml:space="preserve">
<style type="text/css">
	.st0{fill:#C9C9C9;}
</style>
<g>
	<path class="st0" d="M12.9,20H2.8L0,8.5h15.7L12.9,20z M3.9,18.5h8l2-8.7h-12L3.9,18.5z"/>
	<path class="st0" d="M7.5,7.4l-0.9,0C1.3,7.1,0,3,0.1,0.8l0-0.8l0.8,0c2.1-0.1,6.3,1.2,6.5,6.4L7.5,7.4z M1.6,1.5
		c0.2,1.4,1.1,3.6,4.2,4.2C5.3,2.7,3,1.8,1.6,1.5z"/>
	<path class="st0" d="M8.6,7.4l0-0.9C8.9,3,11.6,2.2,13,2.2l0.8,0l0,0.8c0.1,1.4-0.8,4.1-4.2,4.3L8.6,7.4z M12.6,3.4
		c-1.7,0.2-2.4,1.1-2.7,2.7C11.8,5.9,12.6,4.8,12.6,3.4z"/>
</g>
</svg>
