<?xml version="1.0" encoding="utf-8"?>
<!-- Generator: Adobe Illustrator 21.1.0, SVG Export Plug-In . SVG Version: 6.00 Build 0)  -->
<svg version="1.1" id="Layer_1" xmlns="http://www.w3.org/2000/svg" xmlns:xlink="http://www.w3.org/1999/xlink" x="0px" y="0px"
	 viewBox="0 0 100 100" style="enable-background:new 0 0 100 100;" xml:space="preserve">
<style type="text/css">
	.st0{fill:#C9C9C9;}
</style>
<g>
	<path class="st0" d="M89,83.3l-9.5-13.5l-1.4-2.3l-4.1-25c-0.3-1.6-0.6-3.1-1-4.8L63,6.9c-1-3.1-3.9-5.2-7.2-5.2
		c-2.2,0-4.3,1-5.7,2.6c0,0,0,0.1-0.1,0.1c0,0,0-0.1-0.1-0.1c-1.4-1.7-3.5-2.6-5.7-2.6c-3.3,0-6.2,2.1-7.2,5.2L27,37.7l-0.1,0.2
		c-0.4,1.5-0.7,3.1-1,4.7l-4.1,25l-1.3,2.2L11,83.3c-0.4,0.6-0.6,1.4-0.5,2.1c0.1,0.7,0.6,1.4,1.2,1.8l16.1,10.7
		c1.2,0.8,2.9,0.5,3.7-0.7l16.6-22.8c0.3-0.4,0.4-0.8,0.5-1.3L50,63l1.3,10.1c0.1,0.5,0.2,0.9,0.5,1.3l16.6,22.8
		c0.5,0.7,1.3,1.1,2.2,1.1c0.5,0,1.1-0.2,1.5-0.5l16.1-10.7c0.6-0.4,1-1.1,1.2-1.8C89.6,84.6,89.4,83.9,89,83.3 M35.4,82.7l-6.7,9.1
		l-11.6-7.7l6.4-9.1L35.4,82.7z M52.7,40.7c0-1.3,0.9-2.5,2.2-2.9c0.1,0,0.3-0.1,0.4-0.1c0.8-0.1,1.6,0.1,2.2,0.6
		c0.6,0.5,1,1.2,1.1,2l1.4,11.6c0.1,0.7,0.5,1.4,1,1.8c0.6,0.5,1.3,0.6,2,0.6c0.7-0.1,1.4-0.5,1.8-1c0.5-0.6,0.7-1.3,0.6-2
		l-1.4-11.6c-0.3-2.3-1.4-4.3-3.2-5.7c-0.7-0.5-1.5-1-2.3-1.3c-0.6-0.2-1.3-0.4-1.9-0.5l-0.4-5.4L53.8,9.5c-0.1-0.6,0.1-1.2,0.5-1.6
		c0.4-0.5,1-0.7,1.6-0.7c0.9,0,1.7,0.6,1.9,1.4l10,30.7c0.4,1.3,0.6,2.7,0.9,4.1l4.1,25.5c0.1,0.4,0.2,0.7,0.4,1l0.3,0.5l-12,7.9
		l-4.8-6.5L52.8,41v0C52.8,40.9,52.7,40.8,52.7,40.7 M51.4,33.4c-0.5,0.3-0.9,0.6-1.4,1c-0.4-0.4-0.9-0.7-1.4-1l0.5-6.1l0.9-5.9
		l0.9,5.9L51.4,33.4z M43.7,26.6l-0.4,5.6c-1.5,0.2-3,0.8-4.2,1.7c-1.8,1.4-2.9,3.4-3.2,5.7l-1.4,11.6c-0.1,0.7,0.1,1.4,0.6,2
		c0.5,0.6,1.1,0.9,1.8,1c1.5,0.2,2.9-0.9,3.1-2.4l1.4-11.6c0.1-0.8,0.5-1.5,1.1-2c0.6-0.5,1.4-0.7,2.2-0.6c0.1,0,0.3,0,0.5,0.1
		c1.4,0.4,2.3,1.8,2.2,3.3l-3.9,30.7l-4.8,6.5l-12.1-7.9l0.3-0.5c0.2-0.3,0.3-0.6,0.4-1l4.1-25.5c0.2-1.4,0.5-2.8,0.8-4l10-30.8
		c0.3-0.8,1.1-1.4,1.9-1.4c0.6,0,1.2,0.3,1.6,0.7c0.4,0.5,0.6,1.1,0.5,1.6L43.7,26.6z M82.9,84.1l-11.6,7.7l-6.7-9.1L76.5,75
		L82.9,84.1z"/>
	<path class="st0" d="M61.2,59.2c0.1,0.2,0.2,0.3,0.3,0.5c0.1,0.2,0.2,0.3,0.3,0.4c0.1,0.1,0.3,0.2,0.4,0.4c0.1,0.1,0.3,0.2,0.5,0.3
		c0.2,0.1,0.3,0.1,0.5,0.2c0.2,0,0.4,0.1,0.5,0.1c0.2,0,0.4,0,0.5-0.1c0.2,0,0.3-0.1,0.5-0.2c0.2-0.1,0.3-0.2,0.5-0.2
		c0.2-0.1,0.3-0.2,0.4-0.3c0.5-0.5,0.8-1.2,0.8-1.9c0-0.2,0-0.4-0.1-0.5c0-0.2-0.1-0.3-0.2-0.5c-0.1-0.2-0.1-0.3-0.2-0.5
		c-0.1-0.2-0.2-0.3-0.3-0.4c-0.1-0.1-0.3-0.2-0.4-0.3c-0.1-0.1-0.3-0.2-0.5-0.3c-0.2-0.1-0.3-0.1-0.5-0.2c-0.4-0.1-0.7-0.1-1.1,0
		c-0.2,0-0.3,0.1-0.5,0.2c-0.2,0.1-0.3,0.2-0.5,0.3c-0.2,0.1-0.3,0.2-0.4,0.3c-0.1,0.1-0.2,0.3-0.4,0.4c-0.1,0.1-0.2,0.3-0.2,0.5
		c-0.1,0.2-0.1,0.3-0.2,0.5c0,0.2-0.1,0.4-0.1,0.5c0,0.2,0,0.4,0.1,0.5C61.1,58.8,61.1,59,61.2,59.2"/>
	<path class="st0" d="M34,56.6c-0.1,0.1-0.2,0.3-0.2,0.5c-0.1,0.2-0.1,0.3-0.2,0.5c0,0.2-0.1,0.4-0.1,0.5c0,0.2,0,0.4,0.1,0.5
		c0,0.2,0.1,0.3,0.2,0.5c0.1,0.2,0.2,0.3,0.3,0.5c0.1,0.1,0.2,0.3,0.3,0.4c0.1,0.1,0.3,0.2,0.4,0.3c0.1,0.1,0.3,0.2,0.5,0.3
		c0.2,0.1,0.3,0.1,0.5,0.2c0.2,0,0.4,0.1,0.5,0.1c0.2,0,0.4,0,0.5-0.1c0.2,0,0.3-0.1,0.5-0.2c0.2-0.1,0.3-0.2,0.4-0.2
		c0.2-0.1,0.3-0.2,0.4-0.3c0.1-0.1,0.2-0.3,0.4-0.4c0.1-0.2,0.2-0.3,0.2-0.5c0.1-0.2,0.1-0.3,0.2-0.5c0-0.2,0.1-0.4,0.1-0.5
		c0-0.2,0-0.4-0.1-0.5c0-0.2-0.1-0.4-0.2-0.5c-0.1-0.2-0.2-0.3-0.3-0.5c-0.1-0.2-0.2-0.3-0.3-0.4c-0.1-0.1-0.3-0.3-0.4-0.3
		c-0.1-0.1-0.3-0.2-0.5-0.3c-0.2-0.1-0.3-0.1-0.5-0.2c-0.4-0.1-0.7-0.1-1.1,0c-0.2,0-0.3,0.1-0.5,0.2c-0.2,0.1-0.3,0.2-0.5,0.2
		c-0.1,0.1-0.3,0.2-0.4,0.3C34.2,56.3,34.1,56.4,34,56.6"/>
	<path class="st0" d="M78.7,23c-1.5,0-2.7,1.2-2.7,2.7c0,1.5,1.2,2.8,2.7,2.8h6.6c1.5,0,2.7-1.2,2.7-2.8c0-1.5-1.2-2.7-2.7-2.7H78.7
		z"/>
	<path class="st0" d="M80.2,32.6c-1.1-1.1-2.8-1.1-3.9,0c-1.1,1.1-1.1,2.8,0,3.9l4.6,4.6c0.5,0.5,1.2,0.8,1.9,0.8s1.4-0.3,1.9-0.8
		c1.1-1.1,1.1-2.8,0-3.9L80.2,32.6z"/>
	<path class="st0" d="M78.3,20c0.7,0,1.4-0.3,1.9-0.8l4.7-4.7c1.1-1.1,1.1-2.8,0-3.9c-0.5-0.5-1.2-0.8-1.9-0.8h0
		c-0.7,0-1.4,0.3-1.9,0.8l-4.7,4.6c-1.1,1.1-1.1,2.8,0,3.9C76.8,19.7,77.5,20,78.3,20"/>
	<path class="st0" d="M14.7,28.7h6.6c1.5,0,2.8-1.2,2.8-2.7c0-1.5-1.2-2.8-2.8-2.8h-6.6c-1.5,0-2.8,1.2-2.8,2.8
		C12,27.5,13.2,28.7,14.7,28.7"/>
	<path class="st0" d="M19.8,19.2c0.5,0.5,1.2,0.8,1.9,0.8s1.4-0.3,1.9-0.8c1.1-1.1,1.1-2.8,0-3.9L19,10.7c-0.5-0.5-1.2-0.8-1.9-0.8
		h0c-0.7,0-1.4,0.3-1.9,0.8c-0.5,0.5-0.8,1.2-0.8,1.9c0,0.7,0.3,1.4,0.8,1.9L19.8,19.2z"/>
	<path class="st0" d="M19.8,32.6l-4.6,4.7c-0.5,0.5-0.8,1.2-0.8,1.9c0,0.7,0.3,1.4,0.8,1.9c0.5,0.5,1.2,0.8,1.9,0.8s1.4-0.3,1.9-0.8
		l4.7-4.6c1.1-1.1,1.1-2.8,0-3.9C22.6,31.5,20.9,31.5,19.8,32.6"/>
</g>
</svg>
