<?xml version="1.0" encoding="utf-8"?>
<!-- Generator: Adobe Illustrator 21.1.0, SVG Export Plug-In . SVG Version: 6.00 Build 0)  -->
<svg version="1.1" id="Capa_1" width="50px" height="50px" xmlns="http://www.w3.org/2000/svg" xmlns:xlink="http://www.w3.org/1999/xlink" x="0px" y="0px"
	 viewBox="0 0 339.9 339.9" style="enable-background:new 0 0 339.9 339.9;" xml:space="preserve">
<style type="text/css">
	.st0{fill:#C9C9C9;}
</style>
<path class="st0" d="M239.5,197.1l-10.8,10.8L209,188.1c15.3-19.8,24.5-44.5,24.5-71.4C233.4,52.4,181.1,0,116.7,0
	C52.4,0,0,52.4,0,116.7c0,64.4,52.4,116.7,116.7,116.7c26.8,0,51.6-9.1,71.3-24.4l19.7,19.7l-10.8,10.8L297.4,340l42.6-42.6
	L239.5,197.1z M116.7,203.1c-47.6,0-86.3-38.7-86.3-86.3c0-47.6,38.7-86.3,86.3-86.3S203,69.1,203,116.7
	C203,164.3,164.3,203.1,116.7,203.1z"/>
</svg>
